PathFileType	4	(X/Y/Z)	C:/Users/opensim2020/Desktop/walking_exp_matlab/subject03_walking15_straight_04.trc																																																																																																																																											
DataRate	CameraRate	NumFrames	NumMarkers	Units	OrigDataRate	OrigDataStartFrame	OrigNumFrames																																																																																																																																							
100	100	4	47	mm	100	2275	182																																																																																																																																							
Frame#	Time	LFHD			RFHD			LBHD			RBHD			C7			T10			CLAV			STRN			RBAK			LSHO			LUPA			LELB			LFRM			LWRA			LWRB			LFIN			RSHO			RUPA			RELB			RFRM			RWRA			RWRB			RFIN			LASI			RASI			LPSI			RPSI			LTHI			LKNE			LTIB			LANK			LHEE			LTOE			RTHI			RKNE			RTIB			RANK			RHEE			RTOE			*39			*40			*41			*42			*43			*44			*45			*46		
		X1	Y1	Z1	X2	Y2	Z2	X3	Y3	Z3	X4	Y4	Z4	X5	Y5	Z5	X6	Y6	Z6	X7	Y7	Z7	X8	Y8	Z8	X9	Y9	Z9	X10	Y10	Z10	X11	Y11	Z11	X12	Y12	Z12	X13	Y13	Z13	X14	Y14	Z14	X15	Y15	Z15	X16	Y16	Z16	X17	Y17	Z17	X18	Y18	Z18	X19	Y19	Z19	X20	Y20	Z20	X21	Y21	Z21	X22	Y22	Z22	X23	Y23	Z23	X24	Y24	Z24	X25	Y25	Z25	X26	Y26	Z26	X27	Y27	Z27	X28	Y28	Z28	X29	Y29	Z29	X30	Y30	Z30	X31	Y31	Z31	X32	Y32	Z32	X33	Y33	Z33	X34	Y34	Z34	X35	Y35	Z35	X36	Y36	Z36	X37	Y37	Z37	X38	Y38	Z38	X39	Y39	Z39	X40	Y40	Z40	X41	Y41	Z41	X42	Y42	Z42	X43	Y43	Z43	X44	Y44	Z44	X45	Y45	Z45	X46	Y46	Z46	X47	Y47	Z47
																																																																																																																																														
114	1.13	327.37033	1600.9906	920.27594	320.93494	1613.703	1052.1178	197.58334	1563.58203	921.21069	196.21617	1575.21143	1051.42859	164.23131	1396.35095	989.86462	155.65457	1080.73108	997.16559	291.53412	1330.85266	993.90057	350.5658	1170.89844	990.99756	122.48462	1215.7323	1086.23181	239.28731	1358.32031	836.31897	277.39325	1168.61926	765.28253	332.14835	1060.97473	757.19073	437.76382	998.47162	781.74054	533.39423	951.14276	837.63446	523.04364	924.38422	790.36633	599.18439	903.64056	811.00781	239.29276	1352.64734	1153.84644	217.94374	1130.302	1224.17651	213.97215	1016.75476	1236.20117	194.91229	880.89557	1242.28918	197.00389	778.52338	1210.44995	166.29138	784.41412	1256.56702	156.34576	708.19916	1243.49573	318.9213	923.10602	875.55768	330.53842	928.91357	1111.50732	159.87199	943.51923	934.88989	166.23439	951.01093	1082.68152	223.50713	627.97968	826.42169	190.30042	449.84848	845.19769	37.22953	313.6474	853.39685	-95.63362	154.01065	900.84045	-141.20097	155.68655	941.66034	-11.10554	26.82724	931.33929	338.27075	637.32092	1153.34888	409.78287	477.81268	1102.69031	403.90155	281.81058	1106.4635	412.13284	66.92003	1055.2074	366.65512	35.77248	1004.1864	553.28015	33.12561	1032.54944	246.59325	1667.50793	964.42053	NaN	NaN	NaN	NaN	NaN	NaN	NaN	NaN	NaN	NaN	NaN	NaN	NaN	NaN	NaN	NaN	NaN	NaN	NaN	NaN	NaN
115	1.14	339.25842	1602.05591	920.401	333.07574	1615.27612	1052.22803	209.50905	1564.54614	921.77081	208.44104	1576.6532	1051.90906	176.989	1397.83936	990.59521	168.05589	1082.09509	997.74377	304.08289	1332.18591	994.73047	363.25568	1172.34937	991.81525	135.33693	1217.49524	1087.63171	251.46437	1360.13232	837.47021	287.51245	1169.896	766.38263	340.15536	1061.71484	758.87097	446.00354	999.09894	782.72675	541.83722	952.19812	838.16962	531.06708	924.67175	791.30298	607.60736	905.19452	811.07654	252.03752	1354.4801	1154.60852	232.92697	1131.83362	1225.00513	230.05675	1018.34283	1236.91345	212.41017	882.29926	1243.25989	214.79207	780.07306	1211.06079	184.95607	785.69659	1257.92676	174.68556	709.24194	1244.69275	332.63464	924.25519	877.604	343.4928	931.90637	1112.75244	173.30956	944.2356	935.26373	179.24521	953.18335	1083.07007	242.91304	627.27576	825.73151	213.83379	448.58704	842.72589	57.54696	316.65344	851.82123	-79.42768	161.39505	899.51764	-123.7635	167.74202	941.39642	-9.27807	26.61188	932.45123	352.80457	639.05005	1153.94849	420.74179	477.91235	1103.07227	409.98508	281.91388	1106.94714	412.53229	67.01643	1055.02515	366.72156	35.87777	1004.34082	553.57709	32.83705	1032.06116	258.61105	1669.02527	964.86304	NaN	NaN	NaN	NaN	NaN	NaN	NaN	NaN	NaN	NaN	NaN	NaN	NaN	NaN	NaN	NaN	NaN	NaN	NaN	NaN	NaN
116	1.15	351.14801	1603.09094	920.60553	345.15051	1616.63782	1052.37915	221.46202	1565.21167	922.34619	220.6041	1577.68896	1052.47156	189.46103	1398.89648	991.59668	180.21004	1083.3512	998.43201	316.65903	1333.31091	995.45886	375.95551	1173.61047	992.4549	148.25069	1219.21338	1088.84949	263.62534	1361.84875	838.64484	297.60458	1171.28357	767.55939	348.96176	1062.55896	760.33759	453.78107	999.49011	783.7417	549.74457	952.54443	838.84113	538.71057	924.57684	792.29926	615.35901	905.79773	811.10651	264.9675	1356.15601	1155.2439	247.85056	1133.51123	1225.95154	246.21396	1020.06097	1237.69519	230.24403	883.95111	1244.32471	233.15993	781.62726	1211.84387	204.11961	787.03107	1259.20837	193.98032	710.44885	1246.01013	345.88297	925.42877	879.38123	356.13126	934.68481	1113.9231	186.22762	944.85602	935.84888	192.09694	955.00415	1083.53613	262.3428	626.21405	825.17682	237.90376	447.05426	841.24536	79.54087	319.08173	850.70502	-61.21302	167.69766	897.1911	-104.68446	179.76773	939.27527	-5.82696	28.13734	931.64038	366.30978	640.59058	1155.41199	429.97141	477.80774	1103.83704	414.76068	281.66431	1107.35632	412.70026	67.08567	1054.948	366.68491	35.93907	1004.42474	553.69165	32.6757	1031.58716	270.15521	1670.55469	965.69843	NaN	NaN	NaN	NaN	NaN	NaN	NaN	NaN	NaN	NaN	NaN	NaN	NaN	NaN	NaN	NaN	NaN	NaN	NaN	NaN	NaN
117	1.16	362.8663	1604.25244	920.82861	357.08707	1617.93396	1052.67554	233.40527	1565.80383	922.96979	232.71507	1578.48669	1052.99744	201.51553	1399.95251	992.97363	192.53781	1084.62048	999.14948	329.16968	1334.3407	996.17865	388.28995	1174.64172	992.91675	161.23906	1220.8158	1089.84253	275.63672	1363.34741	839.87598	307.68738	1172.6554	768.6814	356.76221	1063.37708	762.00476	461.40155	999.53418	784.70911	557.2558	952.24414	839.58014	545.89404	924.02972	793.25165	622.56982	905.50665	811.27771	277.89886	1357.90918	1155.89575	262.67926	1135.18848	1227.02246	262.47699	1021.71387	1238.53052	248.27841	885.53418	1245.41382	251.99529	783.18091	1212.6106	223.68298	788.2348	1260.39771	214.02068	711.52551	1247.4137	358.41812	926.47797	880.73273	368.61389	937.01178	1115.04614	198.57108	945.37555	936.53979	204.92642	956.45215	1084.1687	281.63736	624.95404	824.8786	262.55289	445.6106	840.45856	102.92039	320.87491	849.76691	-41.49811	173.6339	894.64124	-84.44064	191.43161	936.23444	0.90858	31.90428	930.78711	377.56665	642.11456	1157.03333	437.6438	477.35574	1105.13843	418.57303	281.44489	1108.00049	412.66403	67.15369	1055.00061	366.60938	35.99973	1004.59515	553.66449	32.53814	1031.71948	281.53281	1671.56616	964.94855	NaN	NaN	NaN	NaN	NaN	NaN	NaN	NaN	NaN	NaN	NaN	NaN	NaN	NaN	NaN	NaN	NaN	NaN	NaN	NaN	NaN
